# xmcd CD database file generated by Grip 3.3.1
# 
# Track frame offsets:
#       150
#       20700
#       38157
#       54285
#       82767
#       108212
#       124195
#       147372
#       163960
#       182985
#       204355
#       221297
#       246492
#       266092
# 
# Disc length: 3807 seconds
# 
# Revision: 2
# Processed by: cddbd v1.5.2PL0 Copyright (c) Steve Scherf et al.
# Submitted via: Grip 3.3.1
# 
DISCID=c70edd0e
DTITLE=Diversos - Som Brasil - Axé
DYEAR=1900
DGENRE=Other
TTITLE0=Preciso De Você
TTITLE1=Nobre Vagabundo
TTITLE2=Samba Diferente
TTITLE3=A Namorada
TTITLE4=Dia Dos Namorados
TTITLE5=Na Dan a do Strip-Tease
TTITLE6=Vai Sacudir, Vai Abalar
TTITLE7=Dança Da Cordinha
TTITLE8=Jeito Diferente
TTITLE9=Me Abraça
TTITLE10=Ara Ketu Bom Demais
TTITLE11=Leva Eu
TTITLE12=Cilada
TTITLE13=Rapunzel
EXTD=
EXTT0=
EXTT1=
EXTT2=
EXTT3=
EXTT4=
EXTT5=
EXTT6=
EXTT7=
EXTT8=
EXTT9=
EXTT10=
EXTT11=
EXTT12=
EXTT13=
PLAYORDER=
